<svg xmlns="http://www.w3.org/2000/svg" width="16.985" height="15.297" viewBox="0 0 16.985 15.297">
  <g id="Group_84" data-name="Group 84" transform="translate(-3 -5.575)">
    <g id="Group_129" data-name="Group 129">
      <path id="Path_77" data-name="Path 77" d="M15.549,14.944A.944.944,0,0,0,14.605,14H8.944A.945.945,0,0,0,8,14.944v1.887h7.549ZM8,18.718h7.549v2.831H8Z" transform="translate(-0.282 -0.677)" fill="#000000" />
      <path id="Path_78" data-name="Path 78" d="M19.985,11.436c0-2.8-1.691-5.861-8.393-5.861S3,8.636,3,11.436v7.549a1.889,1.889,0,0,0,1.887,1.887h.944V14.267a2.834,2.834,0,0,1,2.831-2.831h5.662a2.834,2.834,0,0,1,2.831,2.831v6.605H18.1a1.889,1.889,0,0,0,1.887-1.887Z" fill="#000000" />
    </g>
  </g>
</svg>