<svg width="15" height="13" viewBox="0 0 15 13" fill="none" xmlns="http://www.w3.org/2000/svg">
  <path d="M13.875 2.25H12.4584V0.125H11.0417V2.25H3.95835V0.125H2.54169V2.25H1.12502C0.937159 2.25 0.756991 2.32463 0.624153 2.45747C0.491315 2.5903 0.416687 2.77047 0.416687 2.95833V7.91667C0.416687 8.10453 0.491315 8.2847 0.624153 8.41753C0.756991 8.55037 0.937159 8.625 1.12502 8.625H2.54169V12.875H3.95835V8.625H11.0417V12.875H12.4584V8.625H13.875C14.0629 8.625 14.2431 8.55037 14.3759 8.41753C14.5087 8.2847 14.5834 8.10453 14.5834 7.91667V2.95833C14.5834 2.77047 14.5087 2.5903 14.3759 2.45747C14.2431 2.32463 14.0629 2.25 13.875 2.25ZM2.13085 7.20833L4.15456 3.66667H5.78585L3.76215 7.20833H2.13085ZM7.69623 3.66667H9.32752L7.30381 7.20833H5.67252L7.69623 3.66667ZM11.2379 3.66667H12.8692L10.8455 7.20833H9.21419L11.2379 3.66667Z" fill="white"/>
</svg>
