<svg xmlns="http://www.w3.org/2000/svg" width="20.007" height="19.904" viewBox="459 -186.952 20.007 19.904"><path d="M479-181.008a.76.76 0 0 0 0-.21v-.08a.77.77 0 0 0-.07-.16.35.35 0 0 0-.05-.08l-.1-.13-.08-.06-.12-.09-9-5a1 1 0 0 0-1 0l-9 5-.09.07-.11.08a.41.41 0 0 0-.07.11.39.39 0 0 0-.08.1.59.59 0 0 0-.06.14.3.3 0 0 0 0 .1.76.76 0 0 0-.17.21v8a1 1 0 0 0 .52.87l9 5a.75.75 0 0 0 .13.06h.1c.164.04.336.04.5 0h.1l.14-.06 9-5a1 1 0 0 0 .51-.87v-8Zm-10 3.87-6.94-3.87 2.76-1.52 6.83 3.9-2.65 1.49Zm0-7.72 6.94 3.85-2.24 1.25-6.83-3.91 2.13-1.19Zm-8 5.55 7 3.92v5.68l-7-3.89v-5.71Zm9 9.6v-5.68l3-1.68v3.06l2-1v-3.18l2-1.11v5.7l-7 3.89Z" fill="#fff" fill-rule="evenodd" data-name="Caminho 108"/></svg>