<?xml version="1.0" encoding="UTF-8"?>
<svg xmlns="http://www.w3.org/2000/svg" xmlns:xlink="http://www.w3.org/1999/xlink" width="35px" height="36px" viewBox="0 0 35 36" version="1.1">
<g id="surface1">
<path style=" stroke:none;fill-rule:nonzero;fill:rgb(0%,0%,0%);fill-opacity:1;" d="M 17.339844 0.652344 C 17.121094 0.878906 16.960938 1.109375 16.742188 1.523438 C 16.558594 1.863281 16.53125 1.957031 16.273438 2.910156 L 16.0625 3.699219 L 15.953125 4.796875 L 15.84375 5.890625 L 15.839844 8.941406 L 15.839844 11.992188 L 15.574219 12.601562 L 14.6875 13.132812 C 14.199219 13.425781 13.726562 13.703125 13.640625 13.75 L 13.480469 13.839844 L 13.464844 13.746094 C 13.457031 13.695312 13.429688 13.402344 13.40625 13.09375 C 13.351562 12.40625 13.34375 12.351562 13.269531 12.21875 L 13.207031 12.109375 L 12.464844 12.097656 L 11.71875 12.09375 L 11.59375 12.320312 L 11.472656 12.550781 L 11.492188 12.976562 C 11.503906 13.210938 11.53125 13.6875 11.550781 14.039062 L 11.585938 14.679688 L 11.757812 14.898438 L 0.984375 21.523438 L 0.789062 21.839844 C 0.589844 22.152344 0.566406 22.210938 0.617188 22.296875 C 0.636719 22.339844 0.628906 22.34375 0.539062 22.335938 C 0.4375 22.324219 0.433594 22.328125 0.214844 22.628906 L 0 22.929688 L 0 23.589844 L 0.117188 23.625 C 0.207031 23.65625 0.257812 23.65625 0.351562 23.628906 C 0.417969 23.613281 1.085938 23.347656 1.835938 23.039062 C 3.191406 22.480469 5.898438 21.394531 6.007812 21.359375 C 6.058594 21.347656 6.09375 21.375 6.191406 21.511719 C 6.261719 21.605469 6.332031 21.683594 6.351562 21.683594 C 6.367188 21.683594 6.453125 21.65625 6.539062 21.625 L 6.695312 21.5625 L 6.695312 21.390625 C 6.695312 21.296875 6.714844 21.195312 6.730469 21.167969 C 6.769531 21.117188 7.371094 20.839844 7.441406 20.839844 C 7.46875 20.839844 7.492188 20.875 7.503906 20.925781 L 7.519531 21.011719 L 7.949219 20.996094 L 7.976562 20.820312 C 7.992188 20.726562 8.019531 20.636719 8.03125 20.617188 C 8.0625 20.589844 9.257812 20.15625 9.269531 20.171875 C 9.273438 20.175781 9.296875 20.253906 9.316406 20.347656 L 9.359375 20.515625 L 9.601562 20.527344 L 9.84375 20.535156 L 9.761719 20.304688 C 9.714844 20.183594 9.679688 20.070312 9.679688 20.054688 C 9.679688 20.019531 10.089844 19.851562 10.605469 19.675781 C 11.257812 19.453125 11.179688 19.445312 11.285156 19.742188 L 11.375 20 L 11.5625 19.992188 L 11.746094 19.984375 L 11.792969 19.742188 C 11.816406 19.613281 11.847656 19.457031 11.855469 19.402344 C 11.871094 19.320312 11.894531 19.28125 11.960938 19.25 C 12.046875 19.203125 13.117188 18.839844 13.128906 18.847656 C 13.128906 18.855469 13.160156 18.980469 13.1875 19.125 L 13.242188 19.390625 L 13.46875 19.402344 L 13.695312 19.410156 L 13.730469 19.253906 C 13.753906 19.140625 13.785156 19.078125 13.835938 19.039062 C 13.878906 19.003906 14.128906 18.871094 14.390625 18.742188 C 15.15625 18.367188 15.695312 18.15625 15.746094 18.207031 C 15.753906 18.214844 15.773438 18.917969 15.785156 19.761719 C 15.8125 21.527344 15.890625 25.792969 15.90625 26.421875 C 15.914062 26.738281 15.964844 27.183594 16.101562 28.179688 C 16.316406 29.742188 16.4375 30.734375 16.425781 30.839844 C 16.417969 30.90625 16.21875 31.042969 14.871094 31.914062 C 12.878906 33.199219 12.273438 33.597656 12.238281 33.664062 C 12.15625 33.816406 12.042969 35.09375 12.105469 35.132812 C 12.175781 35.175781 12.449219 35.191406 12.617188 35.160156 C 12.710938 35.140625 13.28125 34.980469 13.882812 34.804688 C 15.621094 34.289062 16.742188 33.972656 16.886719 33.957031 L 17.015625 33.9375 L 17.046875 34.046875 C 17.0625 34.109375 17.121094 34.386719 17.179688 34.664062 C 17.234375 34.941406 17.300781 35.210938 17.324219 35.261719 C 17.371094 35.363281 17.527344 35.492188 17.605469 35.492188 C 17.675781 35.492188 17.726562 35.382812 17.980469 34.597656 C 18.09375 34.253906 18.199219 33.964844 18.21875 33.957031 C 18.257812 33.941406 18.523438 34.015625 20.46875 34.59375 C 21.753906 34.976562 22.65625 35.234375 22.851562 35.28125 C 22.910156 35.292969 22.949219 35.277344 23.03125 35.207031 L 23.132812 35.117188 L 23.113281 34.625 L 23.089844 34.128906 L 22.957031 33.855469 L 22.816406 33.582031 L 21.050781 32.402344 C 20.078125 31.757812 19.164062 31.140625 19.019531 31.035156 C 18.871094 30.929688 18.75 30.84375 18.746094 30.84375 C 18.742188 30.839844 18.792969 30.496094 18.851562 30.078125 C 18.976562 29.246094 19.167969 27.742188 19.214844 27.28125 C 19.265625 26.75 19.300781 25.921875 19.371094 23.414062 C 19.476562 19.792969 19.515625 18.90625 19.601562 18.609375 C 19.617188 18.558594 19.636719 18.554688 19.972656 18.570312 C 20.480469 18.59375 21.476562 18.738281 21.585938 18.804688 C 21.597656 18.8125 21.609375 18.960938 21.609375 19.136719 L 21.609375 19.453125 L 21.71875 19.484375 C 21.777344 19.503906 21.867188 19.519531 21.914062 19.519531 C 21.992188 19.519531 22.011719 19.503906 22.058594 19.394531 C 22.089844 19.328125 22.125 19.179688 22.140625 19.070312 C 22.160156 18.953125 22.179688 18.855469 22.1875 18.847656 C 22.207031 18.828125 22.714844 18.996094 23.128906 19.160156 C 23.320312 19.238281 23.550781 19.320312 23.632812 19.347656 C 23.773438 19.390625 23.789062 19.402344 23.8125 19.5 C 23.828125 19.554688 23.835938 19.609375 23.828125 19.613281 C 23.820312 19.621094 23.761719 19.613281 23.699219 19.59375 C 23.632812 19.578125 23.574219 19.570312 23.570312 19.578125 C 23.558594 19.582031 23.550781 19.683594 23.542969 19.792969 L 23.53125 19.996094 L 23.914062 19.996094 L 24.03125 19.769531 C 24.164062 19.5 24.082031 19.503906 24.808594 19.71875 L 25.289062 19.863281 L 25.304688 20.023438 C 25.359375 20.554688 25.398438 20.648438 25.585938 20.648438 C 25.722656 20.648438 25.757812 20.617188 25.871094 20.386719 C 25.925781 20.277344 25.988281 20.183594 26.007812 20.175781 C 26.0625 20.15625 27.070312 20.539062 27.375 20.703125 C 27.472656 20.753906 27.472656 20.753906 27.398438 20.757812 C 27.332031 20.757812 27.320312 20.769531 27.292969 20.898438 C 27.277344 20.976562 27.261719 21.085938 27.261719 21.140625 L 27.261719 21.238281 L 27.453125 21.230469 L 27.640625 21.21875 L 27.6875 21.039062 C 27.734375 20.855469 27.734375 20.855469 27.828125 20.863281 C 27.929688 20.871094 28.195312 20.949219 28.363281 21.019531 C 28.476562 21.070312 28.488281 21.089844 28.515625 21.382812 C 28.539062 21.601562 28.550781 21.613281 28.78125 21.640625 L 28.941406 21.660156 L 28.996094 21.480469 C 29.050781 21.320312 29.0625 21.304688 29.125 21.308594 C 29.253906 21.320312 31.304688 22.144531 33.480469 23.070312 C 34.046875 23.308594 34.550781 23.527344 34.609375 23.550781 C 34.699219 23.585938 34.722656 23.585938 34.855469 23.535156 L 35 23.480469 L 35 23.160156 C 35 22.796875 35.023438 22.855469 34.601562 22.171875 C 34.34375 21.75 34.1875 21.546875 34.039062 21.425781 C 33.84375 21.265625 29.351562 18.488281 25.519531 16.15625 C 24.582031 15.589844 23.75 15.082031 23.667969 15.027344 L 23.519531 14.929688 L 23.667969 14.761719 L 23.816406 14.589844 L 23.835938 13.464844 L 23.855469 12.34375 L 23.765625 12.21875 L 23.679688 12.09375 L 22.210938 12.09375 L 22.132812 12.21875 C 22.0625 12.335938 22.054688 12.363281 22.015625 12.984375 C 21.964844 13.761719 21.949219 13.921875 21.917969 13.921875 C 21.890625 13.921875 20.859375 13.304688 20.210938 12.894531 L 19.8125 12.648438 L 19.699219 12.40625 C 19.476562 11.929688 19.496094 12.167969 19.464844 9.816406 C 19.453125 8.648438 19.429688 6.902344 19.414062 5.933594 L 19.390625 4.175781 L 19.246094 3.515625 C 18.964844 2.246094 18.921875 2.105469 18.574219 1.460938 C 18.207031 0.777344 18.007812 0.519531 17.824219 0.476562 C 17.585938 0.421875 17.554688 0.433594 17.339844 0.652344 Z M 17.339844 0.652344 "/>
</g>
</svg>
