<svg width="18" height="17" viewBox="0 0 18 17" fill="none" xmlns="http://www.w3.org/2000/svg">
<path d="M10.4472 15.2764C10.786 15.107 11 14.7607 11 14.382V14V10.414L17.414 5C17.789 4.625 18 4.116 18 3.585V1C18 0.734784 17.8946 0.48043 17.7071 0.292893C17.5196 0.105357 17.2652 0 17 0H1C0.734784 0 0.48043 0.105357 0.292893 0.292893C0.105357 0.48043 0 0.734784 0 1V3.585C0 4.116 0.211 4.625 0.586 5L7 10.414V16V16C7 16.4594 7.4835 16.7583 7.89443 16.5528L8 16.5L10.2654 15.3673L10.4472 15.2764Z" fill="white"/>
</svg>
